<mxfile host="app.diagrams.net" agent="Mozilla/5.0 (Windows NT 10.0; Win64; x64) AppleWebKit/537.36 (KHTML, like Gecko) Chrome/130.0.0.0 Safari/537.36" version="24.8.3">
  <diagram id="alJbpqPRvLY0_reX7AqB" name="Page-1">
    <mxGraphModel dx="641" dy="1085" grid="1" gridSize="10" guides="1" tooltips="1" connect="1" arrows="1" fold="1" page="1" pageScale="1" pageWidth="827" pageHeight="1169" math="1" shadow="0">
      <root>
        <mxCell id="0" />
        <mxCell id="1" parent="0" />
        <mxCell id="zENXvHt3JnQGpUMhq_3b-5" style="rounded=0;orthogonalLoop=1;jettySize=auto;html=1;exitX=1;exitY=0.5;exitDx=0;exitDy=0;entryX=0;entryY=0.5;entryDx=0;entryDy=0;endArrow=none;endFill=0;" edge="1" parent="1" source="zENXvHt3JnQGpUMhq_3b-13" target="zENXvHt3JnQGpUMhq_3b-20">
          <mxGeometry relative="1" as="geometry" />
        </mxCell>
        <mxCell id="zENXvHt3JnQGpUMhq_3b-6" style="rounded=0;orthogonalLoop=1;jettySize=auto;html=1;exitX=1;exitY=0.5;exitDx=0;exitDy=0;entryX=0;entryY=0.5;entryDx=0;entryDy=0;endArrow=none;endFill=0;" edge="1" parent="1" source="zENXvHt3JnQGpUMhq_3b-14" target="zENXvHt3JnQGpUMhq_3b-20">
          <mxGeometry relative="1" as="geometry" />
        </mxCell>
        <mxCell id="zENXvHt3JnQGpUMhq_3b-7" style="rounded=0;orthogonalLoop=1;jettySize=auto;html=1;exitX=1;exitY=0.5;exitDx=0;exitDy=0;entryX=0;entryY=0.5;entryDx=0;entryDy=0;endArrow=none;endFill=0;" edge="1" parent="1" source="zENXvHt3JnQGpUMhq_3b-18" target="zENXvHt3JnQGpUMhq_3b-20">
          <mxGeometry relative="1" as="geometry" />
        </mxCell>
        <mxCell id="zENXvHt3JnQGpUMhq_3b-12" value="" style="group" vertex="1" connectable="0" parent="1">
          <mxGeometry x="240" y="310" width="40" height="150" as="geometry" />
        </mxCell>
        <mxCell id="zENXvHt3JnQGpUMhq_3b-13" value="$$x_1$$" style="text;html=1;align=center;verticalAlign=middle;whiteSpace=wrap;rounded=0;container=0;" vertex="1" parent="zENXvHt3JnQGpUMhq_3b-12">
          <mxGeometry width="40" height="40" as="geometry" />
        </mxCell>
        <mxCell id="zENXvHt3JnQGpUMhq_3b-14" value="$$x_2$$" style="text;html=1;align=center;verticalAlign=middle;whiteSpace=wrap;rounded=0;container=0;" vertex="1" parent="zENXvHt3JnQGpUMhq_3b-12">
          <mxGeometry y="30" width="40" height="40" as="geometry" />
        </mxCell>
        <mxCell id="zENXvHt3JnQGpUMhq_3b-15" value="" style="shape=image;html=1;verticalAlign=top;verticalLabelPosition=bottom;labelBackgroundColor=#ffffff;imageAspect=0;aspect=fixed;image=https://cdn4.iconfinder.com/data/icons/essential-app-2/16/record-round-circle-dot-128.png;container=0;" vertex="1" parent="zENXvHt3JnQGpUMhq_3b-12">
          <mxGeometry x="19" y="70" width="2" height="2" as="geometry" />
        </mxCell>
        <mxCell id="zENXvHt3JnQGpUMhq_3b-16" value="" style="shape=image;html=1;verticalAlign=top;verticalLabelPosition=bottom;labelBackgroundColor=#ffffff;imageAspect=0;aspect=fixed;image=https://cdn4.iconfinder.com/data/icons/essential-app-2/16/record-round-circle-dot-128.png;container=0;" vertex="1" parent="zENXvHt3JnQGpUMhq_3b-12">
          <mxGeometry x="19" y="90" width="2" height="2" as="geometry" />
        </mxCell>
        <mxCell id="zENXvHt3JnQGpUMhq_3b-17" value="" style="shape=image;html=1;verticalAlign=top;verticalLabelPosition=bottom;labelBackgroundColor=#ffffff;imageAspect=0;aspect=fixed;image=https://cdn4.iconfinder.com/data/icons/essential-app-2/16/record-round-circle-dot-128.png;container=0;" vertex="1" parent="zENXvHt3JnQGpUMhq_3b-12">
          <mxGeometry x="19" y="110" width="2" height="2" as="geometry" />
        </mxCell>
        <mxCell id="zENXvHt3JnQGpUMhq_3b-18" value="$$x_n$$" style="text;html=1;align=center;verticalAlign=middle;whiteSpace=wrap;rounded=0;container=0;" vertex="1" parent="zENXvHt3JnQGpUMhq_3b-12">
          <mxGeometry y="110" width="40" height="40" as="geometry" />
        </mxCell>
        <mxCell id="zENXvHt3JnQGpUMhq_3b-20" value="" style="ellipse;whiteSpace=wrap;html=1;aspect=fixed;fillColor=#d5e8d4;strokeColor=#82b366;" vertex="1" parent="1">
          <mxGeometry x="360" y="240" width="40" height="40" as="geometry" />
        </mxCell>
        <mxCell id="zENXvHt3JnQGpUMhq_3b-47" style="rounded=0;orthogonalLoop=1;jettySize=auto;html=1;exitX=1;exitY=0.5;exitDx=0;exitDy=0;entryX=0;entryY=0.5;entryDx=0;entryDy=0;endArrow=none;endFill=0;" edge="1" parent="1" target="zENXvHt3JnQGpUMhq_3b-50" source="zENXvHt3JnQGpUMhq_3b-13">
          <mxGeometry relative="1" as="geometry">
            <mxPoint x="350" y="400" as="sourcePoint" />
          </mxGeometry>
        </mxCell>
        <mxCell id="zENXvHt3JnQGpUMhq_3b-48" style="rounded=0;orthogonalLoop=1;jettySize=auto;html=1;exitX=1;exitY=0.5;exitDx=0;exitDy=0;entryX=0;entryY=0.5;entryDx=0;entryDy=0;endArrow=none;endFill=0;" edge="1" parent="1" target="zENXvHt3JnQGpUMhq_3b-50" source="zENXvHt3JnQGpUMhq_3b-14">
          <mxGeometry relative="1" as="geometry">
            <mxPoint x="350" y="425" as="sourcePoint" />
          </mxGeometry>
        </mxCell>
        <mxCell id="zENXvHt3JnQGpUMhq_3b-49" style="rounded=0;orthogonalLoop=1;jettySize=auto;html=1;exitX=1;exitY=0.5;exitDx=0;exitDy=0;entryX=0;entryY=0.5;entryDx=0;entryDy=0;endArrow=none;endFill=0;" edge="1" parent="1" target="zENXvHt3JnQGpUMhq_3b-50" source="zENXvHt3JnQGpUMhq_3b-18">
          <mxGeometry relative="1" as="geometry">
            <mxPoint x="350" y="490" as="sourcePoint" />
          </mxGeometry>
        </mxCell>
        <mxCell id="zENXvHt3JnQGpUMhq_3b-50" value="" style="ellipse;whiteSpace=wrap;html=1;aspect=fixed;fillColor=#d5e8d4;strokeColor=#82b366;" vertex="1" parent="1">
          <mxGeometry x="360" y="300" width="40" height="40" as="geometry" />
        </mxCell>
        <mxCell id="zENXvHt3JnQGpUMhq_3b-51" style="rounded=0;orthogonalLoop=1;jettySize=auto;html=1;exitX=1;exitY=0.5;exitDx=0;exitDy=0;entryX=0;entryY=0.5;entryDx=0;entryDy=0;endArrow=none;endFill=0;" edge="1" parent="1" target="zENXvHt3JnQGpUMhq_3b-54" source="zENXvHt3JnQGpUMhq_3b-13">
          <mxGeometry relative="1" as="geometry">
            <mxPoint x="354" y="460" as="sourcePoint" />
          </mxGeometry>
        </mxCell>
        <mxCell id="zENXvHt3JnQGpUMhq_3b-52" style="rounded=0;orthogonalLoop=1;jettySize=auto;html=1;exitX=1;exitY=0.5;exitDx=0;exitDy=0;entryX=0;entryY=0.5;entryDx=0;entryDy=0;endArrow=none;endFill=0;" edge="1" parent="1" target="zENXvHt3JnQGpUMhq_3b-54" source="zENXvHt3JnQGpUMhq_3b-14">
          <mxGeometry relative="1" as="geometry">
            <mxPoint x="354" y="485" as="sourcePoint" />
          </mxGeometry>
        </mxCell>
        <mxCell id="zENXvHt3JnQGpUMhq_3b-53" style="rounded=0;orthogonalLoop=1;jettySize=auto;html=1;exitX=1;exitY=0.5;exitDx=0;exitDy=0;entryX=0;entryY=0.5;entryDx=0;entryDy=0;endArrow=none;endFill=0;" edge="1" parent="1" target="zENXvHt3JnQGpUMhq_3b-54" source="zENXvHt3JnQGpUMhq_3b-18">
          <mxGeometry relative="1" as="geometry">
            <mxPoint x="354" y="550" as="sourcePoint" />
          </mxGeometry>
        </mxCell>
        <mxCell id="zENXvHt3JnQGpUMhq_3b-54" value="" style="ellipse;whiteSpace=wrap;html=1;aspect=fixed;fillColor=#d5e8d4;strokeColor=#82b366;" vertex="1" parent="1">
          <mxGeometry x="360" y="360" width="40" height="40" as="geometry" />
        </mxCell>
        <mxCell id="zENXvHt3JnQGpUMhq_3b-55" style="rounded=0;orthogonalLoop=1;jettySize=auto;html=1;exitX=1;exitY=0.5;exitDx=0;exitDy=0;entryX=0;entryY=0.5;entryDx=0;entryDy=0;endArrow=none;endFill=0;" edge="1" parent="1" target="zENXvHt3JnQGpUMhq_3b-58" source="zENXvHt3JnQGpUMhq_3b-13">
          <mxGeometry relative="1" as="geometry">
            <mxPoint x="280" y="520" as="sourcePoint" />
          </mxGeometry>
        </mxCell>
        <mxCell id="zENXvHt3JnQGpUMhq_3b-56" style="rounded=0;orthogonalLoop=1;jettySize=auto;html=1;exitX=1;exitY=0.5;exitDx=0;exitDy=0;entryX=0;entryY=0.5;entryDx=0;entryDy=0;endArrow=none;endFill=0;" edge="1" parent="1" target="zENXvHt3JnQGpUMhq_3b-58" source="zENXvHt3JnQGpUMhq_3b-14">
          <mxGeometry relative="1" as="geometry">
            <mxPoint x="280" y="545" as="sourcePoint" />
          </mxGeometry>
        </mxCell>
        <mxCell id="zENXvHt3JnQGpUMhq_3b-57" style="rounded=0;orthogonalLoop=1;jettySize=auto;html=1;exitX=1;exitY=0.5;exitDx=0;exitDy=0;entryX=0;entryY=0.5;entryDx=0;entryDy=0;endArrow=none;endFill=0;" edge="1" parent="1" target="zENXvHt3JnQGpUMhq_3b-58" source="zENXvHt3JnQGpUMhq_3b-18">
          <mxGeometry relative="1" as="geometry">
            <mxPoint x="280" y="610" as="sourcePoint" />
          </mxGeometry>
        </mxCell>
        <mxCell id="zENXvHt3JnQGpUMhq_3b-58" value="" style="ellipse;whiteSpace=wrap;html=1;aspect=fixed;fillColor=#d5e8d4;strokeColor=#82b366;" vertex="1" parent="1">
          <mxGeometry x="360" y="420" width="40" height="40" as="geometry" />
        </mxCell>
        <mxCell id="zENXvHt3JnQGpUMhq_3b-59" style="rounded=0;orthogonalLoop=1;jettySize=auto;html=1;exitX=1;exitY=0.5;exitDx=0;exitDy=0;entryX=0;entryY=0.5;entryDx=0;entryDy=0;endArrow=none;endFill=0;" edge="1" parent="1" target="zENXvHt3JnQGpUMhq_3b-62" source="zENXvHt3JnQGpUMhq_3b-13">
          <mxGeometry relative="1" as="geometry">
            <mxPoint x="280" y="580" as="sourcePoint" />
          </mxGeometry>
        </mxCell>
        <mxCell id="zENXvHt3JnQGpUMhq_3b-60" style="rounded=0;orthogonalLoop=1;jettySize=auto;html=1;exitX=1;exitY=0.5;exitDx=0;exitDy=0;entryX=0;entryY=0.5;entryDx=0;entryDy=0;endArrow=none;endFill=0;" edge="1" parent="1" target="zENXvHt3JnQGpUMhq_3b-62" source="zENXvHt3JnQGpUMhq_3b-14">
          <mxGeometry relative="1" as="geometry">
            <mxPoint x="280" y="605" as="sourcePoint" />
          </mxGeometry>
        </mxCell>
        <mxCell id="zENXvHt3JnQGpUMhq_3b-61" style="rounded=0;orthogonalLoop=1;jettySize=auto;html=1;exitX=1;exitY=0.5;exitDx=0;exitDy=0;entryX=0;entryY=0.5;entryDx=0;entryDy=0;endArrow=none;endFill=0;" edge="1" parent="1" target="zENXvHt3JnQGpUMhq_3b-62" source="zENXvHt3JnQGpUMhq_3b-18">
          <mxGeometry relative="1" as="geometry">
            <mxPoint x="280" y="670" as="sourcePoint" />
          </mxGeometry>
        </mxCell>
        <mxCell id="zENXvHt3JnQGpUMhq_3b-62" value="" style="ellipse;whiteSpace=wrap;html=1;aspect=fixed;fillColor=#d5e8d4;strokeColor=#82b366;" vertex="1" parent="1">
          <mxGeometry x="360" y="480" width="40" height="40" as="geometry" />
        </mxCell>
        <mxCell id="zENXvHt3JnQGpUMhq_3b-63" style="rounded=0;orthogonalLoop=1;jettySize=auto;html=1;exitX=1;exitY=0.5;exitDx=0;exitDy=0;entryX=0;entryY=0.5;entryDx=0;entryDy=0;endArrow=none;endFill=0;" edge="1" parent="1" target="zENXvHt3JnQGpUMhq_3b-66" source="zENXvHt3JnQGpUMhq_3b-20">
          <mxGeometry relative="1" as="geometry">
            <mxPoint x="400" y="340" as="sourcePoint" />
          </mxGeometry>
        </mxCell>
        <mxCell id="zENXvHt3JnQGpUMhq_3b-64" style="rounded=0;orthogonalLoop=1;jettySize=auto;html=1;exitX=1;exitY=0.5;exitDx=0;exitDy=0;entryX=0;entryY=0.5;entryDx=0;entryDy=0;endArrow=none;endFill=0;" edge="1" parent="1" target="zENXvHt3JnQGpUMhq_3b-66" source="zENXvHt3JnQGpUMhq_3b-50">
          <mxGeometry relative="1" as="geometry">
            <mxPoint x="400" y="365" as="sourcePoint" />
          </mxGeometry>
        </mxCell>
        <mxCell id="zENXvHt3JnQGpUMhq_3b-65" style="rounded=0;orthogonalLoop=1;jettySize=auto;html=1;exitX=1;exitY=0.5;exitDx=0;exitDy=0;entryX=0;entryY=0.5;entryDx=0;entryDy=0;endArrow=none;endFill=0;" edge="1" parent="1" target="zENXvHt3JnQGpUMhq_3b-66" source="zENXvHt3JnQGpUMhq_3b-54">
          <mxGeometry relative="1" as="geometry">
            <mxPoint x="400" y="430" as="sourcePoint" />
          </mxGeometry>
        </mxCell>
        <mxCell id="zENXvHt3JnQGpUMhq_3b-66" value="" style="ellipse;whiteSpace=wrap;html=1;aspect=fixed;fillColor=#d5e8d4;strokeColor=#82b366;" vertex="1" parent="1">
          <mxGeometry x="480" y="240" width="40" height="40" as="geometry" />
        </mxCell>
        <mxCell id="zENXvHt3JnQGpUMhq_3b-67" style="rounded=0;orthogonalLoop=1;jettySize=auto;html=1;exitX=1;exitY=0.5;exitDx=0;exitDy=0;entryX=0;entryY=0.5;entryDx=0;entryDy=0;endArrow=none;endFill=0;" edge="1" parent="1" source="zENXvHt3JnQGpUMhq_3b-58" target="zENXvHt3JnQGpUMhq_3b-66">
          <mxGeometry relative="1" as="geometry">
            <mxPoint x="414" y="440" as="sourcePoint" />
            <mxPoint x="494" y="320" as="targetPoint" />
          </mxGeometry>
        </mxCell>
        <mxCell id="zENXvHt3JnQGpUMhq_3b-68" style="rounded=0;orthogonalLoop=1;jettySize=auto;html=1;exitX=1;exitY=0.5;exitDx=0;exitDy=0;entryX=0;entryY=0.5;entryDx=0;entryDy=0;endArrow=none;endFill=0;" edge="1" parent="1" source="zENXvHt3JnQGpUMhq_3b-62" target="zENXvHt3JnQGpUMhq_3b-66">
          <mxGeometry relative="1" as="geometry">
            <mxPoint x="420" y="400" as="sourcePoint" />
            <mxPoint x="500" y="280" as="targetPoint" />
          </mxGeometry>
        </mxCell>
        <mxCell id="zENXvHt3JnQGpUMhq_3b-69" style="rounded=0;orthogonalLoop=1;jettySize=auto;html=1;exitX=1;exitY=0.5;exitDx=0;exitDy=0;entryX=0;entryY=0.5;entryDx=0;entryDy=0;endArrow=none;endFill=0;" edge="1" parent="1" target="zENXvHt3JnQGpUMhq_3b-72" source="zENXvHt3JnQGpUMhq_3b-20">
          <mxGeometry relative="1" as="geometry">
            <mxPoint x="540" y="320" as="sourcePoint" />
          </mxGeometry>
        </mxCell>
        <mxCell id="zENXvHt3JnQGpUMhq_3b-70" style="rounded=0;orthogonalLoop=1;jettySize=auto;html=1;exitX=1;exitY=0.5;exitDx=0;exitDy=0;entryX=0;entryY=0.5;entryDx=0;entryDy=0;endArrow=none;endFill=0;" edge="1" parent="1" target="zENXvHt3JnQGpUMhq_3b-72" source="zENXvHt3JnQGpUMhq_3b-50">
          <mxGeometry relative="1" as="geometry">
            <mxPoint x="540" y="380" as="sourcePoint" />
          </mxGeometry>
        </mxCell>
        <mxCell id="zENXvHt3JnQGpUMhq_3b-71" style="rounded=0;orthogonalLoop=1;jettySize=auto;html=1;exitX=1;exitY=0.5;exitDx=0;exitDy=0;entryX=0;entryY=0.5;entryDx=0;entryDy=0;endArrow=none;endFill=0;" edge="1" parent="1" target="zENXvHt3JnQGpUMhq_3b-72" source="zENXvHt3JnQGpUMhq_3b-54">
          <mxGeometry relative="1" as="geometry">
            <mxPoint x="540" y="440" as="sourcePoint" />
          </mxGeometry>
        </mxCell>
        <mxCell id="zENXvHt3JnQGpUMhq_3b-72" value="" style="ellipse;whiteSpace=wrap;html=1;aspect=fixed;fillColor=#d5e8d4;strokeColor=#82b366;" vertex="1" parent="1">
          <mxGeometry x="480" y="300" width="40" height="40" as="geometry" />
        </mxCell>
        <mxCell id="zENXvHt3JnQGpUMhq_3b-73" style="rounded=0;orthogonalLoop=1;jettySize=auto;html=1;exitX=1;exitY=0.5;exitDx=0;exitDy=0;entryX=0;entryY=0.5;entryDx=0;entryDy=0;endArrow=none;endFill=0;" edge="1" parent="1" target="zENXvHt3JnQGpUMhq_3b-72" source="zENXvHt3JnQGpUMhq_3b-58">
          <mxGeometry relative="1" as="geometry">
            <mxPoint x="540" y="500" as="sourcePoint" />
            <mxPoint x="634" y="380" as="targetPoint" />
          </mxGeometry>
        </mxCell>
        <mxCell id="zENXvHt3JnQGpUMhq_3b-74" style="rounded=0;orthogonalLoop=1;jettySize=auto;html=1;exitX=1;exitY=0.5;exitDx=0;exitDy=0;entryX=0;entryY=0.5;entryDx=0;entryDy=0;endArrow=none;endFill=0;" edge="1" parent="1" target="zENXvHt3JnQGpUMhq_3b-72" source="zENXvHt3JnQGpUMhq_3b-62">
          <mxGeometry relative="1" as="geometry">
            <mxPoint x="540" y="560" as="sourcePoint" />
            <mxPoint x="640" y="340" as="targetPoint" />
          </mxGeometry>
        </mxCell>
        <mxCell id="zENXvHt3JnQGpUMhq_3b-75" style="rounded=0;orthogonalLoop=1;jettySize=auto;html=1;exitX=1;exitY=0.5;exitDx=0;exitDy=0;entryX=0;entryY=0.5;entryDx=0;entryDy=0;endArrow=none;endFill=0;" edge="1" parent="1" target="zENXvHt3JnQGpUMhq_3b-78" source="zENXvHt3JnQGpUMhq_3b-20">
          <mxGeometry relative="1" as="geometry">
            <mxPoint x="500" y="420" as="sourcePoint" />
          </mxGeometry>
        </mxCell>
        <mxCell id="zENXvHt3JnQGpUMhq_3b-76" style="rounded=0;orthogonalLoop=1;jettySize=auto;html=1;exitX=1;exitY=0.5;exitDx=0;exitDy=0;entryX=0;entryY=0.5;entryDx=0;entryDy=0;endArrow=none;endFill=0;" edge="1" parent="1" target="zENXvHt3JnQGpUMhq_3b-78" source="zENXvHt3JnQGpUMhq_3b-50">
          <mxGeometry relative="1" as="geometry">
            <mxPoint x="500" y="480" as="sourcePoint" />
          </mxGeometry>
        </mxCell>
        <mxCell id="zENXvHt3JnQGpUMhq_3b-77" style="rounded=0;orthogonalLoop=1;jettySize=auto;html=1;exitX=1;exitY=0.5;exitDx=0;exitDy=0;entryX=0;entryY=0.5;entryDx=0;entryDy=0;endArrow=none;endFill=0;" edge="1" parent="1" target="zENXvHt3JnQGpUMhq_3b-78" source="zENXvHt3JnQGpUMhq_3b-54">
          <mxGeometry relative="1" as="geometry">
            <mxPoint x="500" y="540" as="sourcePoint" />
          </mxGeometry>
        </mxCell>
        <mxCell id="zENXvHt3JnQGpUMhq_3b-78" value="" style="ellipse;whiteSpace=wrap;html=1;aspect=fixed;fillColor=#d5e8d4;strokeColor=#82b366;" vertex="1" parent="1">
          <mxGeometry x="480" y="360" width="40" height="40" as="geometry" />
        </mxCell>
        <mxCell id="zENXvHt3JnQGpUMhq_3b-79" style="rounded=0;orthogonalLoop=1;jettySize=auto;html=1;exitX=1;exitY=0.5;exitDx=0;exitDy=0;entryX=0;entryY=0.5;entryDx=0;entryDy=0;endArrow=none;endFill=0;" edge="1" parent="1" target="zENXvHt3JnQGpUMhq_3b-78" source="zENXvHt3JnQGpUMhq_3b-58">
          <mxGeometry relative="1" as="geometry">
            <mxPoint x="500" y="600" as="sourcePoint" />
            <mxPoint x="594" y="480" as="targetPoint" />
          </mxGeometry>
        </mxCell>
        <mxCell id="zENXvHt3JnQGpUMhq_3b-80" style="rounded=0;orthogonalLoop=1;jettySize=auto;html=1;exitX=1;exitY=0.5;exitDx=0;exitDy=0;entryX=0;entryY=0.5;entryDx=0;entryDy=0;endArrow=none;endFill=0;" edge="1" parent="1" target="zENXvHt3JnQGpUMhq_3b-78" source="zENXvHt3JnQGpUMhq_3b-62">
          <mxGeometry relative="1" as="geometry">
            <mxPoint x="500" y="660" as="sourcePoint" />
            <mxPoint x="600" y="440" as="targetPoint" />
          </mxGeometry>
        </mxCell>
        <mxCell id="zENXvHt3JnQGpUMhq_3b-81" style="rounded=0;orthogonalLoop=1;jettySize=auto;html=1;exitX=1;exitY=0.5;exitDx=0;exitDy=0;entryX=0;entryY=0.5;entryDx=0;entryDy=0;endArrow=none;endFill=0;" edge="1" parent="1" target="zENXvHt3JnQGpUMhq_3b-84" source="zENXvHt3JnQGpUMhq_3b-20">
          <mxGeometry relative="1" as="geometry">
            <mxPoint x="580" y="345" as="sourcePoint" />
          </mxGeometry>
        </mxCell>
        <mxCell id="zENXvHt3JnQGpUMhq_3b-82" style="rounded=0;orthogonalLoop=1;jettySize=auto;html=1;exitX=1;exitY=0.5;exitDx=0;exitDy=0;entryX=0;entryY=0.5;entryDx=0;entryDy=0;endArrow=none;endFill=0;" edge="1" parent="1" target="zENXvHt3JnQGpUMhq_3b-84" source="zENXvHt3JnQGpUMhq_3b-50">
          <mxGeometry relative="1" as="geometry">
            <mxPoint x="580" y="405" as="sourcePoint" />
          </mxGeometry>
        </mxCell>
        <mxCell id="zENXvHt3JnQGpUMhq_3b-83" style="rounded=0;orthogonalLoop=1;jettySize=auto;html=1;exitX=1;exitY=0.5;exitDx=0;exitDy=0;entryX=0;entryY=0.5;entryDx=0;entryDy=0;endArrow=none;endFill=0;" edge="1" parent="1" target="zENXvHt3JnQGpUMhq_3b-84" source="zENXvHt3JnQGpUMhq_3b-54">
          <mxGeometry relative="1" as="geometry">
            <mxPoint x="580" y="465" as="sourcePoint" />
          </mxGeometry>
        </mxCell>
        <mxCell id="zENXvHt3JnQGpUMhq_3b-84" value="" style="ellipse;whiteSpace=wrap;html=1;aspect=fixed;fillColor=#d5e8d4;strokeColor=#82b366;" vertex="1" parent="1">
          <mxGeometry x="480" y="420" width="40" height="40" as="geometry" />
        </mxCell>
        <mxCell id="zENXvHt3JnQGpUMhq_3b-85" style="rounded=0;orthogonalLoop=1;jettySize=auto;html=1;exitX=1;exitY=0.5;exitDx=0;exitDy=0;entryX=0;entryY=0.5;entryDx=0;entryDy=0;endArrow=none;endFill=0;" edge="1" parent="1" target="zENXvHt3JnQGpUMhq_3b-84" source="zENXvHt3JnQGpUMhq_3b-58">
          <mxGeometry relative="1" as="geometry">
            <mxPoint x="580" y="525" as="sourcePoint" />
            <mxPoint x="674" y="405" as="targetPoint" />
          </mxGeometry>
        </mxCell>
        <mxCell id="zENXvHt3JnQGpUMhq_3b-86" style="rounded=0;orthogonalLoop=1;jettySize=auto;html=1;exitX=1;exitY=0.5;exitDx=0;exitDy=0;entryX=0;entryY=0.5;entryDx=0;entryDy=0;endArrow=none;endFill=0;" edge="1" parent="1" target="zENXvHt3JnQGpUMhq_3b-84" source="zENXvHt3JnQGpUMhq_3b-62">
          <mxGeometry relative="1" as="geometry">
            <mxPoint x="580" y="585" as="sourcePoint" />
            <mxPoint x="680" y="365" as="targetPoint" />
          </mxGeometry>
        </mxCell>
        <mxCell id="zENXvHt3JnQGpUMhq_3b-87" style="rounded=0;orthogonalLoop=1;jettySize=auto;html=1;exitX=1;exitY=0.5;exitDx=0;exitDy=0;entryX=0;entryY=0.5;entryDx=0;entryDy=0;endArrow=none;endFill=0;" edge="1" parent="1" target="zENXvHt3JnQGpUMhq_3b-90" source="zENXvHt3JnQGpUMhq_3b-20">
          <mxGeometry relative="1" as="geometry">
            <mxPoint x="650" y="380" as="sourcePoint" />
          </mxGeometry>
        </mxCell>
        <mxCell id="zENXvHt3JnQGpUMhq_3b-88" style="rounded=0;orthogonalLoop=1;jettySize=auto;html=1;exitX=1;exitY=0.5;exitDx=0;exitDy=0;entryX=0;entryY=0.5;entryDx=0;entryDy=0;endArrow=none;endFill=0;" edge="1" parent="1" target="zENXvHt3JnQGpUMhq_3b-90" source="zENXvHt3JnQGpUMhq_3b-50">
          <mxGeometry relative="1" as="geometry">
            <mxPoint x="650" y="440" as="sourcePoint" />
          </mxGeometry>
        </mxCell>
        <mxCell id="zENXvHt3JnQGpUMhq_3b-89" style="rounded=0;orthogonalLoop=1;jettySize=auto;html=1;exitX=1;exitY=0.5;exitDx=0;exitDy=0;entryX=0;entryY=0.5;entryDx=0;entryDy=0;endArrow=none;endFill=0;" edge="1" parent="1" target="zENXvHt3JnQGpUMhq_3b-90" source="zENXvHt3JnQGpUMhq_3b-54">
          <mxGeometry relative="1" as="geometry">
            <mxPoint x="650" y="500" as="sourcePoint" />
          </mxGeometry>
        </mxCell>
        <mxCell id="zENXvHt3JnQGpUMhq_3b-90" value="" style="ellipse;whiteSpace=wrap;html=1;aspect=fixed;fillColor=#d5e8d4;strokeColor=#82b366;" vertex="1" parent="1">
          <mxGeometry x="480" y="480" width="40" height="40" as="geometry" />
        </mxCell>
        <mxCell id="zENXvHt3JnQGpUMhq_3b-91" style="rounded=0;orthogonalLoop=1;jettySize=auto;html=1;exitX=1;exitY=0.5;exitDx=0;exitDy=0;entryX=0;entryY=0.5;entryDx=0;entryDy=0;endArrow=none;endFill=0;" edge="1" parent="1" target="zENXvHt3JnQGpUMhq_3b-90" source="zENXvHt3JnQGpUMhq_3b-58">
          <mxGeometry relative="1" as="geometry">
            <mxPoint x="650" y="560" as="sourcePoint" />
            <mxPoint x="744" y="440" as="targetPoint" />
          </mxGeometry>
        </mxCell>
        <mxCell id="zENXvHt3JnQGpUMhq_3b-92" style="rounded=0;orthogonalLoop=1;jettySize=auto;html=1;exitX=1;exitY=0.5;exitDx=0;exitDy=0;entryX=0;entryY=0.5;entryDx=0;entryDy=0;endArrow=none;endFill=0;" edge="1" parent="1" target="zENXvHt3JnQGpUMhq_3b-90" source="zENXvHt3JnQGpUMhq_3b-62">
          <mxGeometry relative="1" as="geometry">
            <mxPoint x="650" y="620" as="sourcePoint" />
            <mxPoint x="750" y="400" as="targetPoint" />
          </mxGeometry>
        </mxCell>
        <mxCell id="zENXvHt3JnQGpUMhq_3b-117" style="edgeStyle=orthogonalEdgeStyle;rounded=0;orthogonalLoop=1;jettySize=auto;html=1;endArrow=openThin;endFill=0;entryX=0;entryY=0.5;entryDx=0;entryDy=0;" edge="1" parent="1" source="zENXvHt3JnQGpUMhq_3b-95" target="zENXvHt3JnQGpUMhq_3b-121">
          <mxGeometry relative="1" as="geometry">
            <mxPoint x="680" y="320" as="targetPoint" />
          </mxGeometry>
        </mxCell>
        <mxCell id="zENXvHt3JnQGpUMhq_3b-95" value="" style="ellipse;whiteSpace=wrap;html=1;aspect=fixed;fillColor=#d5e8d4;strokeColor=#82b366;" vertex="1" parent="1">
          <mxGeometry x="600" y="300" width="40" height="40" as="geometry" />
        </mxCell>
        <mxCell id="zENXvHt3JnQGpUMhq_3b-99" style="rounded=0;orthogonalLoop=1;jettySize=auto;html=1;exitX=1;exitY=0.5;exitDx=0;exitDy=0;entryX=0;entryY=0.5;entryDx=0;entryDy=0;endArrow=none;endFill=0;" edge="1" parent="1" source="zENXvHt3JnQGpUMhq_3b-66" target="zENXvHt3JnQGpUMhq_3b-95">
          <mxGeometry relative="1" as="geometry">
            <mxPoint x="580" y="240" as="sourcePoint" />
            <mxPoint x="660" y="240" as="targetPoint" />
          </mxGeometry>
        </mxCell>
        <mxCell id="zENXvHt3JnQGpUMhq_3b-100" style="rounded=0;orthogonalLoop=1;jettySize=auto;html=1;exitX=1;exitY=0.5;exitDx=0;exitDy=0;entryX=0;entryY=0.5;entryDx=0;entryDy=0;endArrow=none;endFill=0;" edge="1" parent="1" source="zENXvHt3JnQGpUMhq_3b-72" target="zENXvHt3JnQGpUMhq_3b-95">
          <mxGeometry relative="1" as="geometry">
            <mxPoint x="520" y="290" as="sourcePoint" />
            <mxPoint x="600" y="350" as="targetPoint" />
          </mxGeometry>
        </mxCell>
        <mxCell id="zENXvHt3JnQGpUMhq_3b-101" style="rounded=0;orthogonalLoop=1;jettySize=auto;html=1;exitX=1;exitY=0.5;exitDx=0;exitDy=0;entryX=0;entryY=0.5;entryDx=0;entryDy=0;endArrow=none;endFill=0;" edge="1" parent="1" source="zENXvHt3JnQGpUMhq_3b-78" target="zENXvHt3JnQGpUMhq_3b-95">
          <mxGeometry relative="1" as="geometry">
            <mxPoint x="540" y="280" as="sourcePoint" />
            <mxPoint x="620" y="340" as="targetPoint" />
          </mxGeometry>
        </mxCell>
        <mxCell id="zENXvHt3JnQGpUMhq_3b-102" style="rounded=0;orthogonalLoop=1;jettySize=auto;html=1;exitX=1;exitY=0.5;exitDx=0;exitDy=0;entryX=0;entryY=0.5;entryDx=0;entryDy=0;endArrow=none;endFill=0;" edge="1" parent="1" source="zENXvHt3JnQGpUMhq_3b-84" target="zENXvHt3JnQGpUMhq_3b-95">
          <mxGeometry relative="1" as="geometry">
            <mxPoint x="550" y="290" as="sourcePoint" />
            <mxPoint x="630" y="350" as="targetPoint" />
          </mxGeometry>
        </mxCell>
        <mxCell id="zENXvHt3JnQGpUMhq_3b-103" style="rounded=0;orthogonalLoop=1;jettySize=auto;html=1;exitX=1;exitY=0.5;exitDx=0;exitDy=0;entryX=0;entryY=0.5;entryDx=0;entryDy=0;endArrow=none;endFill=0;" edge="1" parent="1" source="zENXvHt3JnQGpUMhq_3b-90" target="zENXvHt3JnQGpUMhq_3b-95">
          <mxGeometry relative="1" as="geometry">
            <mxPoint x="560" y="300" as="sourcePoint" />
            <mxPoint x="640" y="360" as="targetPoint" />
          </mxGeometry>
        </mxCell>
        <mxCell id="zENXvHt3JnQGpUMhq_3b-118" style="edgeStyle=orthogonalEdgeStyle;rounded=0;orthogonalLoop=1;jettySize=auto;html=1;endArrow=openThin;endFill=0;entryX=0;entryY=0.5;entryDx=0;entryDy=0;" edge="1" parent="1" source="zENXvHt3JnQGpUMhq_3b-105" target="zENXvHt3JnQGpUMhq_3b-120">
          <mxGeometry relative="1" as="geometry">
            <mxPoint x="680" y="380" as="targetPoint" />
          </mxGeometry>
        </mxCell>
        <mxCell id="zENXvHt3JnQGpUMhq_3b-105" value="" style="ellipse;whiteSpace=wrap;html=1;aspect=fixed;fillColor=#d5e8d4;strokeColor=#82b366;" vertex="1" parent="1">
          <mxGeometry x="600" y="360" width="40" height="40" as="geometry" />
        </mxCell>
        <mxCell id="zENXvHt3JnQGpUMhq_3b-106" style="rounded=0;orthogonalLoop=1;jettySize=auto;html=1;exitX=1;exitY=0.5;exitDx=0;exitDy=0;entryX=0;entryY=0.5;entryDx=0;entryDy=0;endArrow=none;endFill=0;" edge="1" parent="1" target="zENXvHt3JnQGpUMhq_3b-105" source="zENXvHt3JnQGpUMhq_3b-66">
          <mxGeometry relative="1" as="geometry">
            <mxPoint x="600" y="400" as="sourcePoint" />
            <mxPoint x="740" y="380" as="targetPoint" />
          </mxGeometry>
        </mxCell>
        <mxCell id="zENXvHt3JnQGpUMhq_3b-107" style="rounded=0;orthogonalLoop=1;jettySize=auto;html=1;exitX=1;exitY=0.5;exitDx=0;exitDy=0;entryX=0;entryY=0.5;entryDx=0;entryDy=0;endArrow=none;endFill=0;" edge="1" parent="1" target="zENXvHt3JnQGpUMhq_3b-105" source="zENXvHt3JnQGpUMhq_3b-72">
          <mxGeometry relative="1" as="geometry">
            <mxPoint x="600" y="460" as="sourcePoint" />
            <mxPoint x="680" y="490" as="targetPoint" />
          </mxGeometry>
        </mxCell>
        <mxCell id="zENXvHt3JnQGpUMhq_3b-108" style="rounded=0;orthogonalLoop=1;jettySize=auto;html=1;exitX=1;exitY=0.5;exitDx=0;exitDy=0;entryX=0;entryY=0.5;entryDx=0;entryDy=0;endArrow=none;endFill=0;" edge="1" parent="1" target="zENXvHt3JnQGpUMhq_3b-105" source="zENXvHt3JnQGpUMhq_3b-78">
          <mxGeometry relative="1" as="geometry">
            <mxPoint x="600" y="520" as="sourcePoint" />
            <mxPoint x="700" y="480" as="targetPoint" />
          </mxGeometry>
        </mxCell>
        <mxCell id="zENXvHt3JnQGpUMhq_3b-109" style="rounded=0;orthogonalLoop=1;jettySize=auto;html=1;exitX=1;exitY=0.5;exitDx=0;exitDy=0;entryX=0;entryY=0.5;entryDx=0;entryDy=0;endArrow=none;endFill=0;" edge="1" parent="1" target="zENXvHt3JnQGpUMhq_3b-105" source="zENXvHt3JnQGpUMhq_3b-84">
          <mxGeometry relative="1" as="geometry">
            <mxPoint x="600" y="580" as="sourcePoint" />
            <mxPoint x="710" y="490" as="targetPoint" />
          </mxGeometry>
        </mxCell>
        <mxCell id="zENXvHt3JnQGpUMhq_3b-110" style="rounded=0;orthogonalLoop=1;jettySize=auto;html=1;exitX=1;exitY=0.5;exitDx=0;exitDy=0;entryX=0;entryY=0.5;entryDx=0;entryDy=0;endArrow=none;endFill=0;" edge="1" parent="1" target="zENXvHt3JnQGpUMhq_3b-105" source="zENXvHt3JnQGpUMhq_3b-90">
          <mxGeometry relative="1" as="geometry">
            <mxPoint x="600" y="640" as="sourcePoint" />
            <mxPoint x="720" y="500" as="targetPoint" />
          </mxGeometry>
        </mxCell>
        <mxCell id="zENXvHt3JnQGpUMhq_3b-119" style="edgeStyle=orthogonalEdgeStyle;rounded=0;orthogonalLoop=1;jettySize=auto;html=1;endArrow=openThin;endFill=0;entryX=0;entryY=0.5;entryDx=0;entryDy=0;" edge="1" parent="1" source="zENXvHt3JnQGpUMhq_3b-111" target="zENXvHt3JnQGpUMhq_3b-122">
          <mxGeometry relative="1" as="geometry">
            <mxPoint x="680" y="440" as="targetPoint" />
          </mxGeometry>
        </mxCell>
        <mxCell id="zENXvHt3JnQGpUMhq_3b-111" value="" style="ellipse;whiteSpace=wrap;html=1;aspect=fixed;fillColor=#d5e8d4;strokeColor=#82b366;" vertex="1" parent="1">
          <mxGeometry x="600" y="420" width="40" height="40" as="geometry" />
        </mxCell>
        <mxCell id="zENXvHt3JnQGpUMhq_3b-112" style="rounded=0;orthogonalLoop=1;jettySize=auto;html=1;exitX=1;exitY=0.5;exitDx=0;exitDy=0;entryX=0;entryY=0.5;entryDx=0;entryDy=0;endArrow=none;endFill=0;" edge="1" parent="1" target="zENXvHt3JnQGpUMhq_3b-111" source="zENXvHt3JnQGpUMhq_3b-66">
          <mxGeometry relative="1" as="geometry">
            <mxPoint x="580" y="450" as="sourcePoint" />
            <mxPoint x="720" y="430" as="targetPoint" />
          </mxGeometry>
        </mxCell>
        <mxCell id="zENXvHt3JnQGpUMhq_3b-113" style="rounded=0;orthogonalLoop=1;jettySize=auto;html=1;exitX=1;exitY=0.5;exitDx=0;exitDy=0;entryX=0;entryY=0.5;entryDx=0;entryDy=0;endArrow=none;endFill=0;" edge="1" parent="1" target="zENXvHt3JnQGpUMhq_3b-111" source="zENXvHt3JnQGpUMhq_3b-72">
          <mxGeometry relative="1" as="geometry">
            <mxPoint x="580" y="510" as="sourcePoint" />
            <mxPoint x="660" y="540" as="targetPoint" />
          </mxGeometry>
        </mxCell>
        <mxCell id="zENXvHt3JnQGpUMhq_3b-114" style="rounded=0;orthogonalLoop=1;jettySize=auto;html=1;exitX=1;exitY=0.5;exitDx=0;exitDy=0;entryX=0;entryY=0.5;entryDx=0;entryDy=0;endArrow=none;endFill=0;" edge="1" parent="1" target="zENXvHt3JnQGpUMhq_3b-111" source="zENXvHt3JnQGpUMhq_3b-78">
          <mxGeometry relative="1" as="geometry">
            <mxPoint x="580" y="570" as="sourcePoint" />
            <mxPoint x="680" y="530" as="targetPoint" />
          </mxGeometry>
        </mxCell>
        <mxCell id="zENXvHt3JnQGpUMhq_3b-115" style="rounded=0;orthogonalLoop=1;jettySize=auto;html=1;exitX=1;exitY=0.5;exitDx=0;exitDy=0;entryX=0;entryY=0.5;entryDx=0;entryDy=0;endArrow=none;endFill=0;" edge="1" parent="1" target="zENXvHt3JnQGpUMhq_3b-111" source="zENXvHt3JnQGpUMhq_3b-84">
          <mxGeometry relative="1" as="geometry">
            <mxPoint x="580" y="630" as="sourcePoint" />
            <mxPoint x="690" y="540" as="targetPoint" />
          </mxGeometry>
        </mxCell>
        <mxCell id="zENXvHt3JnQGpUMhq_3b-116" style="rounded=0;orthogonalLoop=1;jettySize=auto;html=1;exitX=1;exitY=0.5;exitDx=0;exitDy=0;entryX=0;entryY=0.5;entryDx=0;entryDy=0;endArrow=none;endFill=0;" edge="1" parent="1" target="zENXvHt3JnQGpUMhq_3b-111" source="zENXvHt3JnQGpUMhq_3b-90">
          <mxGeometry relative="1" as="geometry">
            <mxPoint x="580" y="690" as="sourcePoint" />
            <mxPoint x="700" y="550" as="targetPoint" />
          </mxGeometry>
        </mxCell>
        <mxCell id="zENXvHt3JnQGpUMhq_3b-120" value="$$\hat{y}_2$$" style="text;html=1;align=center;verticalAlign=middle;whiteSpace=wrap;rounded=0;container=0;" vertex="1" parent="1">
          <mxGeometry x="680" y="370" width="20" height="20" as="geometry" />
        </mxCell>
        <mxCell id="zENXvHt3JnQGpUMhq_3b-121" value="$$\hat{y}_1$$" style="text;html=1;align=center;verticalAlign=middle;whiteSpace=wrap;rounded=0;container=0;" vertex="1" parent="1">
          <mxGeometry x="680" y="310" width="20" height="20" as="geometry" />
        </mxCell>
        <mxCell id="zENXvHt3JnQGpUMhq_3b-122" value="$$\hat{y}_3$$" style="text;html=1;align=center;verticalAlign=middle;whiteSpace=wrap;rounded=0;container=0;" vertex="1" parent="1">
          <mxGeometry x="680" y="430" width="20" height="20" as="geometry" />
        </mxCell>
      </root>
    </mxGraphModel>
  </diagram>
</mxfile>
